<svg width="513" height="512" viewBox="0 0 513 512" fill="none" xmlns="http://www.w3.org/2000/svg">
<path d="M250.074 92.4491C249.728 92.5875 247.722 93.2102 245.646 93.8329C242.325 94.8016 233.538 98.8838 208.906 110.577C200.258 114.728 196.936 117.219 194.169 121.44C192.232 124.484 191.955 125.522 192.024 129.466C192.093 134.932 193.754 138.599 197.974 142.266C200.811 144.757 223.851 156.381 241.426 164.268C248.898 167.589 249.798 167.797 256.163 168.074C262.183 168.35 263.497 168.143 268.271 166.482C277.335 163.23 314.421 144.342 317.88 141.159C323.139 136.316 324.453 129.12 321.271 122.685C318.78 117.634 315.805 115.351 304.527 110.023C299.061 107.394 294.494 105.249 294.287 105.249C294.01 105.249 288.406 102.689 278.788 98.1227C268.894 93.487 263.774 92.1032 256.717 92.1724C253.465 92.1724 250.489 92.3107 250.074 92.4491ZM202.333 174.578C198.666 175.892 195.622 178.66 193.961 182.396L192.301 185.994L192.439 287.98L192.647 389.966L194.584 394.117C201.849 409.685 233.33 421.447 262.874 419.648C290.55 417.988 313.937 407.263 320.786 393.079L322.655 389.274L322.447 287.219C322.309 191.806 322.17 184.956 321.063 182.396C318.642 176.792 312.207 173.194 306.118 173.955C304.527 174.093 297.331 177.207 289.374 181.151C270.831 190.353 267.51 191.391 257.339 191.391C247.099 191.322 246.061 191.045 226.55 181.704C210.083 173.816 207.107 172.917 202.333 174.578Z" fill="black"></path>
</svg>
